<svg width="15" height="15" viewBox="0 0 15 15" fill="none" xmlns="http://www.w3.org/2000/svg">
<path d="M13.271 0.838013H8.30825C7.93684 0.838092 7.58067 0.985698 7.31808 1.24837L1.08156 7.48488C0.819005 7.74752 0.671509 8.10368 0.671509 8.47505C0.671509 8.84642 0.819005 9.20258 1.08156 9.46522L6.0436 14.4273C6.30624 14.6898 6.66241 14.8373 7.03377 14.8373C7.40514 14.8373 7.7613 14.6898 8.02394 14.4273L14.2605 8.19074C14.5238 7.92885 14.6715 7.57241 14.6715 7.20128V2.23853C14.6715 1.86709 14.524 1.51086 14.2613 1.24822C13.9987 0.985567 13.6424 0.838013 13.271 0.838013ZM11.1751 5.73493C10.9886 5.73915 10.8031 5.70606 10.6296 5.63762C10.456 5.56917 10.2979 5.46674 10.1645 5.33634C10.0311 5.20594 9.92508 5.05021 9.85269 4.87827C9.78029 4.70634 9.74297 4.52167 9.74293 4.33512C9.74288 4.14857 9.78011 3.96388 9.85242 3.79191C9.92473 3.61994 10.0307 3.46415 10.164 3.33369C10.2974 3.20322 10.4554 3.10071 10.6289 3.03218C10.8024 2.96365 10.9879 2.93047 11.1744 2.93459C11.5403 2.94268 11.8886 3.09371 12.1445 3.35533C12.4005 3.61696 12.5439 3.9684 12.544 4.33442C12.5441 4.70044 12.4009 5.05195 12.145 5.3137C11.8892 5.57546 11.541 5.72666 11.1751 5.73493Z" fill="#40464C"/>
</svg>
